<!DOCTYPE svg PUBLIC "-//W3C//DTD SVG 1.1//EN" "http://www.w3.org/Graphics/SVG/1.1/DTD/svg11.dtd">
<!-- Uploaded to: SVG Repo, www.svgrepo.com, Transformed by: SVG Repo Mixer Tools -->
<svg fill="#13679E" height="64px" width="64px" version="1.1" id="Layer_1" xmlns="http://www.w3.org/2000/svg" xmlns:xlink="http://www.w3.org/1999/xlink" viewBox="0 0 512 512" xml:space="preserve">
<g id="SVGRepo_bgCarrier" stroke-width="0"/>
<g id="SVGRepo_tracerCarrier" stroke-linecap="round" stroke-linejoin="round"/>
<g id="SVGRepo_iconCarrier"> <g> <g> <path d="M79.412,234.58H64.784c-4.328,0-7.837,3.508-7.837,7.837c0,4.329,3.509,7.837,7.837,7.837h14.629 c4.328,0,7.837-3.508,7.837-7.837C87.249,238.087,83.74,234.58,79.412,234.58z"/> </g> </g> <g> <g> <path d="M221.518,234.58H206.89c-4.328,0-7.837,3.508-7.837,7.837c0,4.329,3.509,7.837,7.837,7.837h14.629 c4.328,0,7.837-3.508,7.837-7.837C229.355,238.087,225.846,234.58,221.518,234.58z"/> </g> </g> <g> <g> <path d="M493.594,84.842H339.275c-10.149,0-18.406,8.259-18.406,18.41v25.118l-17.749,10.25c-4.047,2.336-6.561,6.69-6.561,11.364 c0,4.67,2.511,9.024,6.56,11.365l17.75,10.253v86.03c0,10.151,8.257,18.41,18.406,18.41h90.178c4.329,0,7.837-3.508,7.837-7.837 c0-4.329-3.508-7.837-7.837-7.837h-90.178c-1.507,0-2.732-1.228-2.732-2.737v-90.553c0-2.799-1.493-5.385-3.917-6.786 l-17.845-10.307l17.845-10.307c2.424-1.4,3.917-3.986,3.917-6.786v-29.643c0-1.509,1.226-2.737,2.732-2.737h154.319 c1.507,0,2.732,1.228,2.732,2.737v154.381c0,1.509-1.226,2.737-2.732,2.737h-33.839c-4.329,0-7.837,3.508-7.837,7.837 c0,4.329,3.508,7.837,7.837,7.837h33.839c10.149,0,18.406-8.259,18.406-18.41V103.252C512,93.101,503.743,84.842,493.594,84.842z"/> </g> </g> <g> <g> <path d="M467.868,135.495c-7.364-7.365-17.151-11.422-27.625-11.422c-8.757,0.018-17.068,2.906-23.864,8.219 c-6.796-5.275-15.103-8.131-23.895-8.131c-10.429,0.021-20.224,4.113-27.58,11.521c-7.349,7.402-11.386,17.23-11.367,27.676 c0.019,10.445,4.092,20.26,11.467,27.631l41.737,41.761c2.622,2.621,6.101,4.064,9.8,4.064c0.003,0,0.022,0,0.025,0 c3.659-0.005,7.239-1.5,9.819-4.102l41.582-41.908c7.353-7.401,11.39-17.23,11.373-27.68 C479.318,152.683,475.245,142.869,467.868,135.495z M456.845,179.763l-40.304,40.62l-40.453-40.474 c-4.422-4.422-6.865-10.31-6.876-16.578c-0.011-6.269,2.41-12.167,6.816-16.606c4.4-4.431,10.256-6.879,16.527-6.891 c6.217,0,12.067,2.425,16.473,6.834c4.392,5.289,10.387,5.276,14.759-0.03c4.401-4.431,10.257-6.879,16.524-6.891 c6.22,0,12.072,2.425,16.476,6.831c4.424,4.423,6.867,10.311,6.88,16.575C463.677,169.425,461.255,175.322,456.845,179.763z"/> </g> </g> <g> <g> <path d="M97.554,196.428c-4.328,0-7.837,3.508-7.837,7.837v13.808c0,4.329,3.509,7.837,7.837,7.837s7.837-3.508,7.837-7.837 v-13.808C105.39,199.936,101.882,196.428,97.554,196.428z"/> </g> </g> <g> <g> <path d="M187.011,196.428c-4.328,0-7.837,3.508-7.837,7.837v13.808c0,4.329,3.508,7.837,7.837,7.837 c4.328,0,7.837-3.508,7.837-7.837v-13.808C194.847,199.936,191.339,196.428,187.011,196.428z"/> </g> </g> <g> <g> <path d="M172.903,248.755h-61.24c-6.542,0-11.865,5.324-11.865,11.867v6.449c-0.002,16.769,13.635,30.409,30.397,30.409h24.174 c16.762,0,30.399-13.641,30.399-30.409v-6.449C184.768,254.077,179.446,248.755,172.903,248.755z M169.094,267.071 c0,8.124-6.606,14.735-14.726,14.735h-24.174c-8.12,0-14.726-6.61-14.726-14.735v-2.643h0.001h53.624V267.071z"/> </g> </g> <g> <g> <path d="M277.31,286.824c4.329,0,7.837-3.508,7.837-7.837V155.827c0-75.743-61.669-137.363-137.47-137.363h-10.208 C61.669,18.463,0,80.084,0,155.827v181.541c0,29.054,8.934,56.666,25.828,80.108c-0.38,3.244-0.574,6.498-0.574,9.71v36.553 v16.737c0,0.272,0.014,0.539,0.041,0.802c0.418,6.827,6.09,12.259,13.02,12.259h37.962c4.328,0,7.837-3.508,7.837-7.837 c0-4.329-3.509-7.837-7.837-7.837H40.927v-14.125c0-26.205,21.181-47.524,47.217-47.524c22.8,0,42.326,16.362,46.428,38.905 c0.678,3.725,3.924,6.433,7.71,6.433s7.032-2.708,7.71-6.433c4.102-22.543,23.627-38.905,46.428-38.905 c26.036,0,47.217,21.319,47.217,47.524v14.125H105.535c-4.328,0-7.837,3.508-7.837,7.837c0,4.329,3.509,7.837,7.837,7.837h140.714 c7.202,0,13.061-5.859,13.061-13.061v-53.29c0-2.997-0.169-6.019-0.495-9.022c17.22-23.588,26.33-51.447,26.33-80.797V309.29 c0-4.329-3.508-7.837-7.837-7.837c-4.328,0-7.837,3.508-7.837,7.837v28.077c0,21.223-5.363,41.576-15.629,59.7 c-10.732-27.703-35.771-48.305-65.524-52.971v-22.368c18.782-6.669,35.564-18.875,47.719-34.816 c13.81-18.112,21.11-39.756,21.11-62.59v-55.048c0-4.329-3.509-7.837-7.837-7.837h-44.405l-12.922-22.382 c-1.4-2.424-3.987-3.918-6.787-3.918c-2.799,0-5.386,1.494-6.787,3.918l-12.922,22.382H35.554c-4.328,0-7.837,3.508-7.837,7.837 v55.047c0,22.835,7.3,44.477,21.11,62.589c12.154,15.941,28.937,28.148,47.719,34.817v22.369 c-29.613,4.653-54.602,25.141-65.403,52.688c-10.163-18.056-15.47-38.31-15.47-59.417V155.827 c0-67.1,54.638-121.69,121.795-121.69h10.208c67.159,0,121.796,54.59,121.796,121.69v123.161 C269.473,283.317,272.982,286.824,277.31,286.824z M43.39,224.321V177.11h126.623c2.8,0,5.386-1.494,6.787-3.918l8.398-14.545 l8.398,14.545c1.4,2.424,3.986,3.918,6.787,3.918h40.942v47.211c0,48.318-39.293,87.628-87.591,87.628h-22.902 c-8.399,0-16.515-1.213-24.209-3.43c-0.02-0.006-0.038-0.017-0.057-0.022C69.369,297.717,43.39,263.102,43.39,224.321z M141.848,362.924c-3.681,0-7.148,0.935-10.178,2.578c-10.539-3.987-18.294-13.731-19.451-25.401v-14.177 c6.039,1.107,12.257,1.699,18.612,1.699h22.902c6.431,0,12.722-0.607,18.83-1.741l-0.104,12.665 c-0.601,12.553-8.818,23.132-20.096,27.156C149.252,363.942,145.669,362.924,141.848,362.924z M147.595,384.345 c0,3.169-2.578,5.747-5.747,5.747c-3.169,0-5.747-2.578-5.747-5.747c0-3.169,2.578-5.747,5.747-5.747 C145.017,378.598,147.595,381.176,147.595,384.345z M41.885,416.776c4.701-30.466,29.768-54.27,60.161-57.603 c4.414,8.06,11.17,14.642,19.334,18.855c-0.618,1.998-0.953,4.118-0.953,6.316c0,11.812,9.609,21.42,21.42,21.42 s21.42-9.609,21.42-21.42c0-2.066-0.309-4.056-0.858-5.947c8.514-4.191,15.546-10.938,20.099-19.252 c30.216,3.168,55.157,26.495,60.289,56.572c-0.008,0.438,0.01,0.88,0.078,1.327c0.237,1.58,0.414,3.17,0.541,4.764 c-11.528-13.034-28.321-21.266-46.998-21.266c-22.772,0-43.092,12.237-54.138,31.001c-11.046-18.764-31.366-31.001-54.138-31.001 c-18.675,0-35.468,8.232-46.996,21.264C41.248,420.561,41.816,417.224,41.885,416.776z"/> </g> </g> </g>
</svg>