<!DOCTYPE svg PUBLIC "-//W3C//DTD SVG 1.1//EN" "http://www.w3.org/Graphics/SVG/1.1/DTD/svg11.dtd">
<!-- Uploaded to: SVG Repo, www.svgrepo.com, Transformed by: SVG Repo Mixer Tools -->
<svg fill="#13679E" height="64px" width="64px" version="1.1" id="Capa_1" xmlns="http://www.w3.org/2000/svg" xmlns:xlink="http://www.w3.org/1999/xlink" viewBox="0 0 379.685 379.685" xml:space="preserve">
<g id="SVGRepo_bgCarrier" stroke-width="0"/>
<g id="SVGRepo_tracerCarrier" stroke-linecap="round" stroke-linejoin="round"/>
<g id="SVGRepo_iconCarrier"> <path d="M97.367,272.971c0,27.064,22.018,49.083,49.082,49.083c5.523,0,10,4.478,10,10s-4.477,10-10,10 c-38.092,0-69.082-30.99-69.082-69.083c0-5.522,4.477-10,10-10S97.367,267.448,97.367,272.971z M338.563,364.61L272.45,252.265 c-1.797-3.053-5.075-4.928-8.618-4.928H156.448v-101.37c0-5.522-4.477-10-10-10s-10,4.478-10,10v111.37c0,5.522,4.477,10,10,10 h111.665l63.214,107.418c1.863,3.167,5.2,4.93,8.628,4.93c1.723,0,3.47-0.446,5.063-1.384 C339.777,375.5,341.365,369.371,338.563,364.61z M89.306,57.471C89.306,25.781,115.087,0,146.775,0 c31.69,0,57.473,25.781,57.473,57.471s-25.782,57.471-57.473,57.471C115.087,114.941,89.306,89.16,89.306,57.471z M109.306,57.471 c0,20.661,16.808,37.471,37.468,37.471c20.663,0,37.473-16.81,37.473-37.471S167.437,20,146.775,20 C126.115,20,109.306,36.81,109.306,57.471z M240.644,297.177c-5.173-1.915-10.933,0.726-12.851,5.905 c-12.538,33.854-45.229,56.601-81.345,56.601c-47.812,0-86.71-38.898-86.71-86.712c0-31.68,17.271-60.833,45.075-76.083 c4.842-2.656,6.615-8.734,3.958-13.577c-2.656-4.842-8.735-6.613-13.577-3.958c-34.207,18.763-55.457,54.635-55.457,93.618 c0,58.841,47.87,106.712,106.71,106.712c44.443,0,84.67-27.992,100.101-69.655C248.467,304.849,245.824,299.096,240.644,297.177z"/> </g>
</svg>